<svg width="28" height="30" viewBox="0 0 28 30" fill="none" xmlns="http://www.w3.org/2000/svg">
<path fill-rule="evenodd" clip-rule="evenodd" d="M11.7169 1.04412L12.515 3.14617C12.539 3.20933 12.5949 3.24994 12.6624 3.25322L14.9082 3.36267C15.0609 3.37011 15.1234 3.56254 15.0043 3.65834L13.2517 5.06693C13.199 5.10924 13.1777 5.17492 13.1954 5.24013L13.7853 7.4098C13.8255 7.55734 13.6618 7.67629 13.5338 7.5925L11.6526 6.36103C11.596 6.324 11.527 6.324 11.4705 6.36103L9.58925 7.5925C9.46128 7.67629 9.29763 7.55734 9.33777 7.4098L9.92763 5.24008C9.94533 5.17486 9.92406 5.10918 9.87138 5.06687L8.11884 3.65828C7.99966 3.56248 8.06218 3.37006 8.21494 3.36261L10.4607 3.25316C10.5282 3.24988 10.5841 3.20928 10.6081 3.14611L11.4062 1.04406C11.46 0.90197 11.663 0.90197 11.7169 1.04412ZM22.5752 18.8469C25.3961 18.8469 27.683 21.1337 27.683 23.9547C27.683 26.7756 25.3961 29.0625 22.5752 29.0625C19.7543 29.0625 17.4674 26.7756 17.4674 23.9547C17.4674 21.1337 19.7543 18.8469 22.5752 18.8469ZM21.9043 24.4052L20.763 23.2639C20.4672 22.9681 19.9874 22.9681 19.6916 23.2639C19.3958 23.5597 19.3958 24.0395 19.6916 24.3353L21.3702 26.014C21.666 26.3097 22.1458 26.3097 22.4416 26.014C23.4534 25.0022 24.4538 23.9789 25.4609 22.9625C25.7546 22.6661 25.7536 22.1878 25.4576 21.8934C25.1615 21.599 24.6819 21.5998 24.3879 21.8968L21.9043 24.4052ZM3.15542 26.3209L17.0107 26.3208C16.7013 25.5941 16.53 24.7944 16.53 23.9547C16.53 22.6776 16.9264 21.4932 17.6023 20.5172C15.9972 19.0862 13.8812 18.2163 11.5616 18.2163C7.09661 18.2163 3.38452 21.4387 2.62316 25.6846C2.56327 26.0181 2.81658 26.3209 3.15542 26.3209ZM11.5616 8.44679C14.0976 8.44679 16.1534 10.5026 16.1534 13.0386C16.1534 15.5745 14.0976 17.6303 11.5616 17.6303C9.0257 17.6303 6.96988 15.5745 6.96988 13.0386C6.96982 10.5026 9.02564 8.44679 11.5616 8.44679ZM19.453 4.01951C19.399 3.87736 19.196 3.87736 19.1421 4.01951L18.344 6.12156C18.32 6.18478 18.2641 6.22533 18.1966 6.22861L15.9508 6.33806C15.7981 6.34551 15.7356 6.53793 15.8547 6.63373L17.6073 8.04232C17.66 8.08468 17.6813 8.15031 17.6635 8.21553L17.0737 10.3853C17.0335 10.5328 17.1972 10.6517 17.3251 10.5679L19.2064 9.33648C19.2629 9.29945 19.3319 9.29945 19.3885 9.33648L21.2697 10.5679C21.3977 10.6517 21.5614 10.5328 21.5212 10.3853L20.9313 8.21558C20.9135 8.15037 20.9349 8.08474 20.9876 8.04238L22.7401 6.63379C22.8593 6.53799 22.7968 6.34556 22.644 6.33812L20.3982 6.22867C20.3307 6.22539 20.2749 6.18478 20.2509 6.12162L19.453 4.01951ZM3.98083 4.01951C3.92687 3.87736 3.7239 3.87736 3.66999 4.01951L2.87189 6.12156C2.84792 6.18478 2.79202 6.22533 2.72452 6.22861L0.478743 6.33806C0.325989 6.34551 0.26347 6.53793 0.38265 6.63373L2.13519 8.04232C2.18786 8.08468 2.20919 8.15031 2.19144 8.21553L1.60158 10.3853C1.56144 10.5328 1.72509 10.6517 1.85306 10.5679L3.73427 9.33648C3.79081 9.29945 3.85984 9.29945 3.91638 9.33648L5.79765 10.5679C5.92562 10.6517 6.08927 10.5328 6.04913 10.3853L5.45927 8.21558C5.44152 8.15037 5.46284 8.08474 5.51552 8.04238L7.26806 6.63379C7.38724 6.53799 7.32472 6.34556 7.17197 6.33812L4.92618 6.22867C4.85869 6.22539 4.80285 6.18478 4.77882 6.12162L3.98083 4.01951Z" fill="white"/>
</svg>
