<svg width="28" height="30" viewBox="0 0 28 30" fill="none" xmlns="http://www.w3.org/2000/svg">
<path d="M27.1659 18.7294V16.8359H18.4371C18.4371 19.286 16.451 21.2722 14.0009 21.2722C11.5508 21.2722 9.56465 19.286 9.56465 16.8359H0.835938V18.7294L4.62625 19.1308C4.86268 20.0999 5.24547 21.0117 5.7499 21.8414L3.35295 24.8061L6.03074 27.4839L8.99541 25.0869C9.8251 25.5914 10.7369 25.9742 11.7061 26.2106L12.1074 30.0009H15.8944L16.2957 26.2106C17.2649 25.9742 18.1767 25.5914 19.0064 25.0869L21.9711 27.4839L24.6488 24.8061L22.2519 21.8414C22.7563 21.0117 23.1391 20.0999 23.3755 19.1308L27.1659 18.7294Z" fill="white"/>
<path d="M14.0019 0C12.127 0 10.6016 1.52543 10.6016 3.40037C10.6016 5.27531 12.127 6.80068 14.0019 6.80068C15.8769 6.80068 17.4023 5.27531 17.4023 3.40037C17.4023 1.52543 15.8769 0 14.0019 0Z" fill="white"/>
<path d="M17.6231 7.74219H10.3825C8.71553 7.74225 7.35938 9.09834 7.35938 10.7653V15.0786H20.6462V10.7653C20.6462 9.09834 19.2901 7.74219 17.6231 7.74219Z" fill="white"/>
<path d="M6.7883 1.57031C5.10865 1.57031 3.74219 2.93684 3.74219 4.61643C3.74219 6.28254 5.08697 7.63975 6.74805 7.66148C7.43594 6.85688 8.3851 6.2826 9.46346 6.07195C9.69982 5.63924 9.83441 5.1433 9.83441 4.61643C9.83441 2.93678 8.46795 1.57031 6.7883 1.57031Z" fill="white"/>
<path d="M3.54408 8.50781C2.05082 8.50781 0.835938 9.72264 0.835938 11.216V15.0799H5.59967V10.7665C5.59967 9.95004 5.8058 9.18088 6.1682 8.50781H3.54408Z" fill="white"/>
<path d="M21.2141 1.57031C19.5344 1.57031 18.168 2.93684 18.168 4.61643C18.168 5.14324 18.3025 5.63924 18.5389 6.07195C19.6173 6.2826 20.5664 6.85688 21.2543 7.66148C22.9154 7.63981 24.2602 6.28254 24.2602 4.61643C24.2602 2.93678 22.8937 1.57031 21.2141 1.57031Z" fill="white"/>
<path d="M24.4562 8.50781H21.832C22.1944 9.18088 22.4006 9.95004 22.4006 10.7665V15.0799H27.1643V11.2159C27.1643 9.72264 25.9494 8.50781 24.4562 8.50781Z" fill="white"/>
</svg>
