<svg width="26" height="30" viewBox="0 0 26 30" fill="none" xmlns="http://www.w3.org/2000/svg">
<path d="M25.7002 25.4901C25.7002 25.4901 22.3704 19.7674 21.7732 18.741C22.4527 18.5337 23.1766 18.3506 23.4774 17.8313C23.9787 16.9659 23.0864 15.5463 23.3207 14.6188C23.562 13.6642 24.9868 12.8381 24.9868 11.8678C24.9868 10.9224 23.5138 9.81794 23.2723 8.86891C23.0364 7.94152 23.926 6.5204 23.4231 5.65609C22.9202 4.7917 21.2452 4.86272 20.5556 4.19922C19.8462 3.51643 19.8484 1.84585 18.9927 1.38828C18.1334 0.929008 16.7371 1.8572 15.7831 1.63734C14.84 1.41998 13.9974 0 13.0123 0C12.0126 0 10.4225 1.61074 10.1731 1.66871C9.21963 1.89036 7.82145 0.964436 6.96314 1.42566C6.10823 1.88477 6.1135 3.55551 5.40534 4.23943C4.71695 4.90415 3.04184 4.83621 2.54048 5.70157C2.03921 6.56678 2.9315 7.98603 2.69728 8.91406C2.46241 9.84445 0.98803 10.7872 0.98803 11.8631C0.98803 12.8336 2.41636 13.657 2.65917 14.6112C2.89518 15.5386 2.00557 16.9595 2.50846 17.8242C2.78224 18.2948 3.40342 18.488 4.02378 18.6737C4.09618 18.6954 4.23311 18.7763 4.14037 18.9115C3.71595 19.6441 0.29997 25.5396 0.29997 25.5396C0.0282152 26.0085 0.248894 26.4104 0.790214 26.4332L3.4399 26.5437C3.98122 26.5665 4.66028 26.9599 4.94922 27.4182L6.36312 29.6618C6.65207 30.1201 7.11053 30.1115 7.3822 29.6426C7.3822 29.6426 11.3383 22.8126 11.3399 22.8107C11.4193 22.7179 11.4991 22.737 11.5372 22.7694C11.9701 23.138 12.5735 23.5056 13.0771 23.5056C13.571 23.5056 14.0284 23.1595 14.4807 22.7735C14.5175 22.7422 14.6071 22.6779 14.6726 22.8113C14.6737 22.8134 18.6254 29.6061 18.6254 29.6061C18.8978 30.0743 19.3563 30.0823 19.6444 29.6234L21.0543 27.3771C21.3425 26.9185 22.0208 26.5236 22.5621 26.5L25.2115 26.3846C25.7526 26.3608 25.9726 25.9583 25.7002 25.4901ZM17.3912 19.3464C14.4616 21.0508 10.9451 20.8681 8.25916 19.1739C4.32351 16.653 3.02854 11.4381 5.39447 7.35456C7.7874 3.22392 13.0476 1.7664 17.2155 4.03635C17.2374 4.04826 17.259 4.06059 17.2807 4.07275C17.3116 4.08986 17.3424 4.1072 17.3732 4.12472C18.659 4.86604 19.7739 5.94195 20.5723 7.31426C23.0125 11.5086 21.5855 16.9063 17.3912 19.3464Z" fill="white"/>
<path d="M16.7213 5.35847C16.7091 5.35142 16.6968 5.34485 16.6846 5.33788C14.4582 4.04932 11.6205 3.95511 9.24228 5.33877C5.71304 7.39201 4.51212 11.9336 6.56535 15.4628C7.19188 16.5397 8.05044 17.3994 9.04098 18.0164C9.12521 18.0697 9.21042 18.1222 9.29749 18.1726C12.8305 20.2194 17.3697 19.0103 19.4164 15.4774C21.4631 11.9444 20.2543 7.40531 16.7213 5.35847ZM17.6051 11.1341L16.368 12.3399C15.9849 12.7134 15.7454 13.4505 15.836 13.9778L16.128 15.6804C16.2185 16.2078 15.905 16.4355 15.4314 16.1866L13.9023 15.3827C13.4287 15.1337 12.6537 15.1337 12.1801 15.3827L10.6511 16.1866C10.1774 16.4355 9.86394 16.2078 9.95442 15.6804L10.2464 13.9778C10.3369 13.4505 10.0974 12.7134 9.71428 12.3399L8.47728 11.1341C8.09405 10.7607 8.21388 10.3922 8.74336 10.3152L10.4529 10.0667C10.9823 9.98981 11.6093 9.53427 11.8462 9.05448L12.6107 7.50543C12.8475 7.02564 13.235 7.02564 13.4717 7.50543L14.2363 9.05448C14.4731 9.53427 15.1001 9.98981 15.6296 10.0667L17.3391 10.3152C17.8685 10.3922 17.9883 10.7607 17.6051 11.1341Z" fill="white"/>
</svg>
